# xmcd CD database file
# Copyright (C) 1993-1997  Ti Kan
#
# Track frame offsets:
#	150
#	16562
#	35912
#	53637
#	70212
#	90700
#	112450
#	134087
#	154375
#	175050
#
# Disc length: 2706 seconds
#
# Revision: 1
# Processed by: cddbd v1.4b41PL1 Copyright (c) Steve Scherf et al.
# Submitted via: xmcd 2.1 PL1
#
DISCID=8d0a900a
DTITLE=Buckshot hunters - 
DYEAR=1900
DGENRE=
TTITLE0=Is it love
TTITLE1=Tightrope
TTITLE2=Cigarettes and wine
TTITLE3=So much to say
TTITLE4=Make it better
TTITLE5=Cure for an achin' heart
TTITLE6=No use for crying
TTITLE7=Think about your move
TTITLE8=Yout love makes me blind
TTITLE9=Your lies
EXTD=
EXTT0=
EXTT1=
EXTT2=
EXTT3=
EXTT4=
EXTT5=
EXTT6=
EXTT7=
EXTT8=
EXTT9=
PLAYORDER=
